<svg xmlns="http://www.w3.org/2000/svg" xmlns:xlink="http://www.w3.org/1999/xlink" id="body_1" preserveAspectRatio="xMinYMin meet" viewBox="0 0 816 1056"><defs><clipPath id="1"><path d="M0 792L0 0L0 0L612 0L612 0L612 792L612 792L0 792z" /></clipPath><clipPath id="2"><path d="M14.25 14.25L597.75 14.25L597.75 14.25L597.75 735L597.75 735L14.25 735L14.25 735L14.25 14.25z" /></clipPath><clipPath id="3"><path d="M14.25 14.25L597.75 14.25L597.75 14.25L597.75 735L597.75 735L14.25 735L14.25 735L14.25 14.25z" /></clipPath><clipPath id="4"><path d="M39.75 14.25L145.5 14.25C 147.156 14.25 148.5 15.59399 148.5 17.25L148.5 17.25L148.5 123.75C 148.5 125.406 147.156 126.75 145.5 126.75L145.5 126.75L39.75 126.75C 38.094 126.75 36.75 125.406 36.75 123.75L36.75 123.75L36.75 17.25C 36.75 15.59399 38.094 14.25 39.75 14.25z" /></clipPath><clipPath id="5"><path d="M14.25 14.25L597.75 14.25L597.75 14.25L597.75 735L597.75 735L14.25 735L14.25 735L14.25 14.25z" /></clipPath></defs><g transform="matrix(1.333333 0 0 1.333333 0 0)"><g><g clip-path="url(#1)"><g clip-path="url(#2)"><path transform="matrix(1 0 0 -1 0 792)" d="M32.25 532.5L357.75 532.5L357.75 532.5L357.75 511.5L357.75 511.5L32.25 511.5C 30.594 511.5 29.25 512.844 29.25 514.5L29.25 514.5L29.25 529.5C 29.25 531.156 30.594 532.5 32.25 532.5z" stroke="none" fill="#3A3A3A" fill-rule="evenodd" /><path transform="matrix(1 0 0 -1 0 792)" d="M357.75 532.5L432.75 532.5L432.75 532.5L432.75 511.5L432.75 511.5L357.75 511.5z" stroke="none" fill="#3A3A3A" fill-rule="winding" /><path transform="matrix(1 0 0 -1 0 792)" d="M432.75 532.5L507.75 532.5L507.75 532.5L507.75 511.5L507.75 511.5L432.75 511.5z" stroke="none" fill="#3A3A3A" fill-rule="winding" /><path transform="matrix(1 0 0 -1 0 792)" d="M507.75 532.5L579.75 532.5C 581.406 532.5 582.75 531.156 582.75 529.5L582.75 529.5L582.75 514.5C 582.75 512.844 581.406 511.5 579.75 511.5L579.75 511.5L507.75 511.5L507.75 511.5L507.75 532.5z" stroke="none" fill="#3A3A3A" fill-rule="evenodd" /></g><g clip-path="url(#3)"><g clip-path="url(#4)"><g transform="matrix(0.2243976 0 0 0.2245509 36.75 14.25006)"><g transform="matrix(1 0 0 1 0 0)"><image x="0" y="0" xlink:href="img_01.png" width="498" height="501" /></g></g></g></g><g clip-path="url(#5)"><path transform="matrix(1 0 0 -1 0 792)" d="M320.25 600L583.5 600C 585.156 600 586.5 598.656 586.5 597L586.5 597L586.5 577.5C 586.5 575.844 585.156 574.5 583.5 574.5L583.5 574.5L320.25 574.5C 318.594 574.5 317.25 575.844 317.25 577.5L317.25 577.5L317.25 597C 317.25 598.656 318.594 600 320.25 600z" stroke="none" fill="#F5F5F5" fill-rule="evenodd" /></g></g></g></g></svg>